<?xml version="1.0" standalone="no"?>
<!DOCTYPE svg PUBLIC "-//W3C//DTD SVG 20010904//EN"
 "http://www.w3.org/TR/2001/REC-SVG-20010904/DTD/svg10.dtd">
<svg version="1.0" xmlns="http://www.w3.org/2000/svg"
 width="206.000000pt" height="206.000000pt" viewBox="0 0 206.000000 206.000000"
 preserveAspectRatio="xMidYMid meet">
<metadata>
Created by potrace 1.15, written by Peter Selinger 2001-2017
</metadata>
<g transform="translate(0.000000,206.000000) scale(0.100000,-0.100000)"
fill="#000000" stroke="none">
<path d="M565 1741 c-11 -5 -31 -21 -45 -36 l-25 -27 -3 -607 -2 -607 23 -35
c30 -45 72 -58 182 -58 110 0 152 13 182 58 l23 35 -2 608 -3 608 -33 32 -32
33 -123 2 c-67 2 -131 -1 -142 -6z"/>
<path d="M1105 1741 c-11 -5 -31 -21 -45 -36 -24 -26 -25 -31 -28 -205 -5
-255 6 -271 186 -277 131 -5 176 7 210 57 23 34 23 40 20 217 l-3 183 -33 32
-32 33 -128 2 c-70 2 -136 -1 -147 -6z"/>
<path d="M1260 1113 c-8 -3 -56 -32 -106 -65 -106 -68 -135 -112 -117 -171 11
-38 320 -502 353 -532 15 -14 36 -20 69 -20 40 0 59 8 129 54 106 69 132 100
132 154 0 37 -18 69 -171 299 -134 201 -178 260 -204 272 -33 16 -58 19 -85 9z"/>
</g>
</svg>
